<svg width="80" height="104" viewBox="0 0 80 104" fill="none" xmlns="http://www.w3.org/2000/svg">
<rect x="21.8683" y="51" width="24" height="50" fill="#CBB9A5"/>
<rect x="9.86835" y="22" width="48" height="66" rx="20" fill="#CBB9A5"/>
<path d="M9.86835 52L10.9718 54.3909C13.997 60.9453 20.3194 65.3609 27.5147 65.9443L31.0135 66.228C33.2345 66.4081 35.4699 66.2157 37.6274 65.659L48.4547 62.8648C49.3668 62.6294 50.1642 62.0748 50.7021 61.3015L57.2973 51.8209C57.4727 51.5688 57.8683 51.6929 57.8683 52V68C57.8683 79.0457 48.914 88 37.8683 88H29.8683C18.8227 88 9.86835 79.0457 9.86835 68V52Z" fill="#312B20"/>
<path d="M52.3683 55.5L57.8683 48.5" stroke="black" stroke-linecap="round"/>
<circle cx="57.8683" cy="27" r="22" fill="#312B20"/>
<circle cx="35.3683" cy="15.5" r="15.5" fill="#312B20"/>
<circle cx="27.3683" cy="26.5" r="15.5" fill="#312B20"/>
<path d="M15.3683 55L9.86835 49" stroke="black" stroke-linecap="round"/>
<path d="M28.4337 19.8436C29.1461 25.2801 22.5242 33.9683 15.7358 34.8579C10.793 69.2985 2.96985 36.2199 2.25742 30.7834C1.545 25.3469 8.06381 12.5003 14.8522 11.6107C21.6406 10.7211 27.7212 14.4071 28.4337 19.8436Z" fill="#312B20"/>
<circle cx="21.8683" cy="54" r="6.5" stroke="#0A0908"/>
<circle cx="45.8683" cy="54" r="6.5" stroke="#0A0908"/>
<path d="M28.3683 53.5C32.9945 52.2164 35.404 52.2242 39.3683 53.5" stroke="black"/>
<path d="M40.7763 72C40.7763 75.866 37.6962 79 33.8968 79C30.0973 79 27.0172 75.866 27.0172 72C26.0345 72 30.0973 73.5 33.8968 73.5C37.6962 73.5 41.5134 72 40.7763 72Z" fill="#F7FFF6"/>
<path d="M17.8683 94C29.9139 98.5084 36.9301 98.4043 49.8683 94V100.873C37.9778 104.906 31.0119 105.176 17.8683 100.873V94Z" fill="#FF8811"/>
</svg>
