<svg width="215" height="51" viewBox="0 0 215 51" fill="none" xmlns="http://www.w3.org/2000/svg">
<path d="M47.0325 18.636C47.3845 18.636 47.7805 18.6653 48.2205 18.724C48.6898 18.7533 49.1445 18.812 49.5845 18.9C50.0245 18.9587 50.4205 19.032 50.7725 19.12C51.1538 19.1787 51.4325 19.2373 51.6085 19.296L50.9045 22.86C50.5818 22.7427 50.0391 22.6107 49.2765 22.464C48.5431 22.288 47.5898 22.2 46.4165 22.2C45.6538 22.2 44.8911 22.288 44.1285 22.464C43.3951 22.6107 42.9111 22.7133 42.6765 22.772V42H38.5845V20.088C39.5525 19.736 40.7551 19.4133 42.1925 19.12C43.6298 18.7973 45.2431 18.636 47.0325 18.636ZM63.3011 39.052C64.2691 39.052 65.1198 39.0373 65.8531 39.008C66.6158 38.9493 67.2464 38.8613 67.7451 38.744V31.924C67.4518 31.7773 66.9678 31.66 66.2931 31.572C65.6478 31.4547 64.8558 31.396 63.9171 31.396C63.3011 31.396 62.6411 31.44 61.9371 31.528C61.2624 31.616 60.6318 31.8067 60.0451 32.1C59.4878 32.364 59.0184 32.7453 58.6371 33.244C58.2558 33.7133 58.0651 34.344 58.0651 35.136C58.0651 36.6027 58.5344 37.6293 59.4731 38.216C60.4118 38.7733 61.6878 39.052 63.3011 39.052ZM62.9491 18.548C64.5918 18.548 65.9704 18.768 67.0851 19.208C68.2291 19.6187 69.1384 20.22 69.8131 21.012C70.5171 21.7747 71.0158 22.6987 71.3091 23.784C71.6024 24.84 71.7491 26.0133 71.7491 27.304V41.604C71.3971 41.6627 70.8984 41.7507 70.2531 41.868C69.6371 41.956 68.9331 42.044 68.1411 42.132C67.3491 42.22 66.4838 42.2933 65.5451 42.352C64.6358 42.44 63.7264 42.484 62.8171 42.484C61.5264 42.484 60.3384 42.352 59.2531 42.088C58.1678 41.824 57.2291 41.4133 56.4371 40.856C55.6451 40.2693 55.0291 39.5067 54.5891 38.568C54.1491 37.6293 53.9291 36.5 53.9291 35.18C53.9291 33.9187 54.1784 32.8333 54.6771 31.924C55.2051 31.0147 55.9091 30.2813 56.7891 29.724C57.6691 29.1667 58.6958 28.756 59.8691 28.492C61.0424 28.228 62.2744 28.096 63.5651 28.096C63.9758 28.096 64.4011 28.1253 64.8411 28.184C65.2811 28.2133 65.6918 28.272 66.0731 28.36C66.4838 28.4187 66.8358 28.4773 67.1291 28.536C67.4224 28.5947 67.6278 28.6387 67.7451 28.668V27.524C67.7451 26.8493 67.6718 26.1893 67.5251 25.544C67.3784 24.8693 67.1144 24.2827 66.7331 23.784C66.3518 23.256 65.8238 22.8453 65.1491 22.552C64.5038 22.2293 63.6531 22.068 62.5971 22.068C61.2478 22.068 60.0598 22.1707 59.0331 22.376C58.0358 22.552 57.2878 22.7427 56.7891 22.948L56.3051 19.56C56.8331 19.3253 57.7131 19.1053 58.9451 18.9C60.1771 18.6653 61.5118 18.548 62.9491 18.548ZM93.3294 23.96C92.8307 23.5493 92.1121 23.1533 91.1734 22.772C90.2347 22.3907 89.2081 22.2 88.0934 22.2C86.9201 22.2 85.9081 22.42 85.0574 22.86C84.2361 23.2707 83.5614 23.8573 83.0334 24.62C82.5054 25.3533 82.1241 26.2333 81.8894 27.26C81.6547 28.2867 81.5374 29.3867 81.5374 30.56C81.5374 33.2293 82.1974 35.2973 83.5174 36.764C84.8374 38.2013 86.5974 38.92 88.7974 38.92C89.9121 38.92 90.8361 38.876 91.5694 38.788C92.3321 38.6707 92.9187 38.5533 93.3294 38.436V23.96ZM93.3294 8.56L97.4214 7.856V41.34C96.4827 41.604 95.2801 41.868 93.8134 42.132C92.3467 42.396 90.6601 42.528 88.7534 42.528C86.9934 42.528 85.4094 42.2493 84.0014 41.692C82.5934 41.1347 81.3907 40.3427 80.3934 39.316C79.3961 38.2893 78.6187 37.0427 78.0614 35.576C77.5334 34.08 77.2694 32.408 77.2694 30.56C77.2694 28.8 77.4894 27.1867 77.9294 25.72C78.3987 24.2533 79.0734 22.992 79.9534 21.936C80.8334 20.88 81.9041 20.0587 83.1654 19.472C84.4561 18.8853 85.9227 18.592 87.5654 18.592C88.8854 18.592 90.0441 18.768 91.0414 19.12C92.0681 19.472 92.8307 19.8093 93.3294 20.132V8.56Z" fill="#59A5D8"/>
<rect y="10" width="34" height="34" rx="6" fill="#59A5D8"/>
<path d="M20.4964 19.12H29.1644V22.552H20.4964V33.112C20.4964 34.256 20.5844 35.2093 20.7604 35.972C20.9364 36.7053 21.2004 37.292 21.5524 37.732C21.9044 38.1427 22.3444 38.436 22.8724 38.612C23.4004 38.788 24.0164 38.876 24.7204 38.876C25.9524 38.876 26.9351 38.744 27.6684 38.48C28.4311 38.1867 28.9591 37.9813 29.2524 37.864L30.0444 41.252C29.6338 41.4573 28.9151 41.7067 27.8884 42C26.8618 42.3227 25.6884 42.484 24.3684 42.484C22.8138 42.484 21.5231 42.2933 20.4964 41.912C19.4991 41.5013 18.6924 40.9 18.0764 40.108C17.4604 39.316 17.0204 38.348 16.7564 37.204C16.5218 36.0307 16.4044 34.6813 16.4044 33.156V12.74L20.4964 12.036V19.12Z" fill="#E5E5E5"/>
<path d="M121.072 41.34C120.133 41.5747 118.887 41.824 117.332 42.088C115.807 42.352 114.032 42.484 112.008 42.484C110.248 42.484 108.767 42.2347 107.564 41.736C106.361 41.208 105.393 40.4747 104.66 39.536C103.927 38.5973 103.399 37.4973 103.076 36.236C102.753 34.9453 102.592 33.5227 102.592 31.968V19.12H106.684V31.088C106.684 33.8747 107.124 35.8693 108.004 37.072C108.884 38.2747 110.365 38.876 112.448 38.876C112.888 38.876 113.343 38.8613 113.812 38.832C114.281 38.8027 114.721 38.7733 115.132 38.744C115.543 38.6853 115.909 38.6413 116.232 38.612C116.584 38.5533 116.833 38.4947 116.98 38.436V19.12H121.072V41.34ZM138.594 42.528L138.11 43.628C138.96 44.0387 139.576 44.4787 139.958 44.948C140.339 45.4467 140.53 46.1653 140.53 47.104C140.53 47.4267 140.456 47.7787 140.31 48.16C140.163 48.5413 139.914 48.8933 139.562 49.216C139.21 49.5387 138.74 49.8027 138.154 50.008C137.567 50.2133 136.848 50.316 135.998 50.316C135.235 50.316 134.531 50.2573 133.886 50.14C133.27 50.0227 132.771 49.8907 132.39 49.744L132.874 47.236C133.226 47.3533 133.592 47.456 133.974 47.544C134.384 47.632 134.839 47.676 135.338 47.676C136.394 47.676 136.922 47.3387 136.922 46.664C136.922 46.3413 136.76 46.0627 136.438 45.828C136.115 45.6227 135.66 45.4027 135.074 45.168L134.766 45.036C134.883 44.684 135.044 44.2587 135.25 43.76C135.455 43.2613 135.675 42.792 135.91 42.352C134.414 42.1467 133.094 41.7213 131.95 41.076C130.835 40.4013 129.896 39.5507 129.134 38.524C128.371 37.4973 127.799 36.324 127.418 35.004C127.036 33.6547 126.846 32.188 126.846 30.604C126.846 28.844 127.095 27.2307 127.594 25.764C128.122 24.2973 128.855 23.036 129.794 21.98C130.732 20.8947 131.876 20.0587 133.226 19.472C134.604 18.856 136.13 18.548 137.802 18.548C138.828 18.548 139.855 18.636 140.882 18.812C141.908 18.988 142.891 19.2667 143.83 19.648L142.906 23.124C142.29 22.8307 141.571 22.596 140.75 22.42C139.958 22.244 139.107 22.156 138.198 22.156C135.91 22.156 134.15 22.8747 132.918 24.312C131.715 25.7493 131.114 27.8467 131.114 30.604C131.114 31.836 131.246 32.9653 131.51 33.992C131.803 35.0187 132.243 35.8987 132.83 36.632C133.446 37.3653 134.223 37.9373 135.162 38.348C136.1 38.7293 137.244 38.92 138.594 38.92C139.679 38.92 140.662 38.8173 141.542 38.612C142.422 38.4067 143.111 38.1867 143.61 37.952L144.182 41.384C143.947 41.5013 143.624 41.6333 143.214 41.78C142.832 41.8973 142.392 42 141.894 42.088C141.395 42.2053 140.852 42.2933 140.266 42.352C139.708 42.44 139.151 42.4987 138.594 42.528ZM168.212 30.56C168.212 32.3787 167.948 34.0213 167.42 35.488C166.892 36.9547 166.144 38.216 165.176 39.272C164.237 40.328 163.108 41.1493 161.788 41.736C160.468 42.2933 159.031 42.572 157.476 42.572C155.921 42.572 154.484 42.2933 153.164 41.736C151.844 41.1493 150.7 40.328 149.732 39.272C148.793 38.216 148.06 36.9547 147.532 35.488C147.004 34.0213 146.74 32.3787 146.74 30.56C146.74 28.7707 147.004 27.1427 147.532 25.676C148.06 24.18 148.793 22.904 149.732 21.848C150.7 20.792 151.844 19.9853 153.164 19.428C154.484 18.8413 155.921 18.548 157.476 18.548C159.031 18.548 160.468 18.8413 161.788 19.428C163.108 19.9853 164.237 20.792 165.176 21.848C166.144 22.904 166.892 24.18 167.42 25.676C167.948 27.1427 168.212 28.7707 168.212 30.56ZM163.944 30.56C163.944 27.9787 163.357 25.94 162.184 24.444C161.04 22.9187 159.471 22.156 157.476 22.156C155.481 22.156 153.897 22.9187 152.724 24.444C151.58 25.94 151.008 27.9787 151.008 30.56C151.008 33.1413 151.58 35.1947 152.724 36.72C153.897 38.216 155.481 38.964 157.476 38.964C159.471 38.964 161.04 38.216 162.184 36.72C163.357 35.1947 163.944 33.1413 163.944 30.56ZM164.736 10.716C164.589 11.068 164.384 11.4787 164.12 11.948C163.885 12.4173 163.577 12.8573 163.196 13.268C162.815 13.6493 162.36 13.9867 161.832 14.28C161.333 14.544 160.776 14.676 160.16 14.676C159.573 14.676 159.016 14.5733 158.488 14.368C157.989 14.1627 157.505 13.9427 157.036 13.708C156.537 13.4733 156.112 13.2973 155.76 13.18C155.408 13.0627 155.071 13.004 154.748 13.004C154.249 13.004 153.78 13.2093 153.34 13.62C152.929 14.0307 152.607 14.4707 152.372 14.94L150.26 13.884C150.377 13.532 150.568 13.1213 150.832 12.652C151.096 12.1827 151.419 11.7573 151.8 11.376C152.181 10.9653 152.621 10.628 153.12 10.364C153.648 10.0707 154.22 9.924 154.836 9.924C155.423 9.924 155.965 10.0267 156.464 10.232C156.992 10.4373 157.491 10.6573 157.96 10.892C158.459 11.1267 158.884 11.3027 159.236 11.42C159.588 11.5373 159.925 11.596 160.248 11.596C160.747 11.596 161.201 11.3907 161.612 10.98C162.052 10.5693 162.389 10.1293 162.624 9.66L164.736 10.716ZM172.693 30.604C172.693 28.58 172.987 26.82 173.573 25.324C174.16 23.7987 174.937 22.5373 175.905 21.54C176.873 20.5427 177.988 19.7947 179.249 19.296C180.511 18.7973 181.801 18.548 183.121 18.548C186.201 18.548 188.563 19.516 190.205 21.452C191.848 23.3587 192.669 26.2773 192.669 30.208C192.669 30.384 192.669 30.6187 192.669 30.912C192.669 31.176 192.655 31.4253 192.625 31.66H176.961C177.137 34.036 177.827 35.84 179.029 37.072C180.232 38.304 182.109 38.92 184.661 38.92C186.099 38.92 187.301 38.8027 188.269 38.568C189.267 38.304 190.015 38.0547 190.513 37.82L191.085 41.252C190.587 41.516 189.707 41.7947 188.445 42.088C187.213 42.3813 185.805 42.528 184.221 42.528C182.227 42.528 180.496 42.2347 179.029 41.648C177.592 41.032 176.404 40.196 175.465 39.14C174.527 38.084 173.823 36.8373 173.353 35.4C172.913 33.9333 172.693 32.3347 172.693 30.604ZM188.401 28.36C188.431 26.512 187.961 25.0013 186.993 23.828C186.055 22.6253 184.749 22.024 183.077 22.024C182.139 22.024 181.303 22.2147 180.569 22.596C179.865 22.948 179.264 23.4173 178.765 24.004C178.267 24.5907 177.871 25.2653 177.577 26.028C177.313 26.7907 177.137 27.568 177.049 28.36H188.401ZM203.871 39.052C205.543 39.052 206.775 38.832 207.567 38.392C208.389 37.952 208.799 37.248 208.799 36.28C208.799 35.2827 208.403 34.4907 207.611 33.904C206.819 33.3173 205.514 32.6573 203.695 31.924C202.815 31.572 201.965 31.22 201.143 30.868C200.351 30.4867 199.662 30.0467 199.075 29.548C198.489 29.0493 198.019 28.448 197.667 27.744C197.315 27.04 197.139 26.1747 197.139 25.148C197.139 23.124 197.887 21.5253 199.383 20.352C200.879 19.1493 202.918 18.548 205.499 18.548C206.145 18.548 206.79 18.592 207.435 18.68C208.081 18.7387 208.682 18.8267 209.239 18.944C209.797 19.032 210.281 19.1347 210.691 19.252C211.131 19.3693 211.469 19.472 211.703 19.56L210.955 23.08C210.515 22.8453 209.826 22.6107 208.887 22.376C207.949 22.112 206.819 21.98 205.499 21.98C204.355 21.98 203.358 22.2147 202.507 22.684C201.657 23.124 201.231 23.828 201.231 24.796C201.231 25.2947 201.319 25.7347 201.495 26.116C201.701 26.4973 201.994 26.8493 202.375 27.172C202.786 27.4653 203.285 27.744 203.871 28.008C204.458 28.272 205.162 28.5507 205.983 28.844C207.069 29.2547 208.037 29.6653 208.887 30.076C209.738 30.4573 210.457 30.912 211.043 31.44C211.659 31.968 212.129 32.6133 212.451 33.376C212.774 34.1093 212.935 35.0187 212.935 36.104C212.935 38.216 212.143 39.8147 210.559 40.9C209.005 41.9853 206.775 42.528 203.871 42.528C201.847 42.528 200.263 42.352 199.119 42C197.975 41.6773 197.198 41.428 196.787 41.252L197.535 37.732C198.005 37.908 198.753 38.172 199.779 38.524C200.806 38.876 202.17 39.052 203.871 39.052Z" fill="#0A0908"/>
<path d="M9 14V22" stroke="#E5E5E5" stroke-width="2" stroke-linecap="round" stroke-linejoin="round"/>
<path d="M5 18H13" stroke="#E5E5E5" stroke-width="2" stroke-linecap="round" stroke-linejoin="round"/>
</svg>
