<svg width="78" height="87" viewBox="0 0 78 87" fill="none" xmlns="http://www.w3.org/2000/svg">
<path d="M14 74C14 71.7909 15.7909 70 18 70H21C23.2091 70 25 71.7909 25 74V87H14V74Z" fill="#F7FFF6"/>
<path d="M30 58C30 55.7909 31.7909 54 34 54H37C39.2091 54 41 55.7909 41 58V87H30V58Z" fill="#F7FFF6"/>
<path d="M46 44C46 41.7909 47.7909 40 50 40H53C55.2091 40 57 41.7909 57 44V87H46V44Z" fill="#F7FFF6"/>
<path d="M62 26C62 23.7909 63.7909 22 66 22H69C71.2091 22 73 23.7909 73 26V87H62V26Z" fill="#F7FFF6"/>
<path d="M68 12C68 10.8954 67.1046 10 66 10L48 10C46.8954 10 46 10.8954 46 12C46 13.1046 46.8954 14 48 14L64 14L64 30C64 31.1046 64.8954 32 66 32C67.1046 32 68 31.1046 68 30V12ZM12.4142 68.4142L67.4142 13.4142L64.5858 10.5858L9.58579 65.5858L12.4142 68.4142Z" fill="#FF8811"/>
</svg>
